Format : AVI
Format/Info : Audio Video Interleave
File size : 699 MiB
Duration : 2h 4mn
Overall bit rate : 783 Kbps
Writing application : VirtualDubMod 1.5.4.1 (build 2178/release)
Writing library : VirtualDubMod build 2178/release

Video
ID : 0
Format : MPEG-4 Visual
Format settings, BVOP : Yes
Format settings, QPel : No
Format settings, GMC : No warppoints
Format settings, Matrix : Default (H.263)
Muxing mode : Packed bitstream
Codec ID : DX50
Codec ID/Hint : DivX 5
Duration : 2h 4mn
Bit rate : 648 Kbps
Width : 720 pixels
Height : 304 pixels
Display aspect ratio : 2.35:1
Frame rate : 25.000 fps
Resolution : 24 bits
Colorimetry : 4:2:0
Scan type : Progressive
Bits/(Pixel*Frame) : 0.118
Stream size : 579 MiB (83%)
Writing library : DivX 6.8.4

Audio
ID : 1
Format : MPEG Audio
Format version : Version 1
Format profile : Layer 3
Codec ID : 55
Codec ID/Hint : MP3
Duration : 2h 4mn
Bit rate mode : Constant
Bit rate : 128 Kbps
Channel(s) : 2 channels
Sampling rate : 48.0 KHz
Resolution : 16 bits
Stream size : 114 MiB (16%)
Alignment : Aligned on interleaves
Interleave, duration : 80 ms (2.00 video frames)
Interleave, preload duration : 504 ms
Writing library : LAME3.98r
Encoding settings : -m j -V 4 -q 2 -lowpass 17 -b 128
Language : English

Starring
Ben Affleck
Jon Hamm
Rebecca Hall
Jeremy Renner
Blake Lively[1]
Pete Postlethwaite
Chris Cooper

A team of four lifelong friends — Doug MacRay (Ben Affleck), James "Jem" Coughlin (Jeremy Renner), Albert "Gloansy" Magloan (Slaine), and Desmond "Dez" Elden (Owen Burke), from the tough streets of Charlestown, a neighborhood in Boston Massachusetts — rob a Cambridge bank, taking bank manager Claire Keesey (Rebecca Hall) hostage. After her release, Doug follows Claire and they begin a relationship. He reveals that his mother deserted his family and may have moved to Tangerine, Florida. FBI agent Adam Frawley (Jon Hamm) surveils the crew and realizes they work for 'Fergie' Colm (Pete Postlethwaite), a local florist. Doug is hesitant to undertake their next assignment, and his fears are confirmed during the robbery in the North End, where gunfire erupts. The police arrive quickly, a chase ensues, and the team barely escapes.
 
http://www.imdb.com/title/tt0840361/

screens
 
http://img444.imageshack.us/img444/8992/thetowndivxviceavisnaps.jpg 
http://img69.imageshack.us/img69/8992/thetowndivxviceavisnaps.jpg 
http://img686.imageshack.us/img686/8992/thetowndivxviceavisnaps.jpg 
http://img121.imageshack.us/img121/8992/thetowndivxviceavisnaps.jpg